<svg width="24" height="25" viewBox="0 0 24 25" fill="none" xmlns="http://www.w3.org/2000/svg">
<path fill-rule="evenodd" clip-rule="evenodd" d="M3.88534 5.7371C3.20538 6.36848 2.75 7.39295 2.75 9V16C2.75 17.607 3.20538 18.6315 3.88534 19.2629C4.57535 19.9036 5.61497 20.25 7 20.25H17C18.385 20.25 19.4246 19.9036 20.1147 19.2629C20.7946 18.6315 21.25 17.607 21.25 16V9C21.25 7.39295 20.7946 6.36848 20.1147 5.7371C19.4246 5.09637 18.385 4.75 17 4.75H7C5.61497 4.75 4.57535 5.09637 3.88534 5.7371ZM2.86466 4.6379C3.92465 3.65363 5.38503 3.25 7 3.25H17C18.615 3.25 20.0754 3.65363 21.1353 4.6379C22.2054 5.63152 22.75 7.10705 22.75 9V16C22.75 17.893 22.2054 19.3685 21.1353 20.3621C20.0754 21.3464 18.615 21.75 17 21.75H7C5.38503 21.75 3.92465 21.3464 2.86466 20.3621C1.79462 19.3685 1.25 17.893 1.25 16V9C1.25 7.10705 1.79462 5.63152 2.86466 4.6379Z" fill="#D3D3D3"/>
<path fill-rule="evenodd" clip-rule="evenodd" d="M19.3633 7.81026C19.6166 8.13802 19.5562 8.60904 19.2285 8.8623L13.6814 13.1486C12.691 13.9138 11.3089 13.9138 10.3185 13.1486L4.77144 8.8623C4.44367 8.60904 4.38328 8.13802 4.63655 7.81026C4.88982 7.48249 5.36083 7.4221 5.6886 7.67537L11.2356 11.9616C11.6858 12.3095 12.3141 12.3095 12.7642 11.9616L18.3113 7.67537C18.6391 7.4221 19.1101 7.48249 19.3633 7.81026Z" fill="#D3D3D3"/>
</svg>
