<svg width="24" height="25" viewBox="0 0 24 25" fill="none" xmlns="http://www.w3.org/2000/svg">
<path d="M9.46406 15.7797C9.27406 15.7797 9.08406 15.7097 8.93406 15.5597C8.11406 14.7397 7.66406 13.6497 7.66406 12.4997C7.66406 10.1097 9.60406 8.16968 11.9941 8.16968C13.1441 8.16968 14.2341 8.61968 15.0541 9.43968C15.1941 9.57968 15.2741 9.76968 15.2741 9.96968C15.2741 10.1697 15.1941 10.3597 15.0541 10.4997L9.99406 15.5597C9.84406 15.7097 9.65406 15.7797 9.46406 15.7797ZM11.9941 9.66968C10.4341 9.66968 9.16406 10.9397 9.16406 12.4997C9.16406 12.9997 9.29406 13.4797 9.53406 13.8997L13.3941 10.0397C12.9741 9.79968 12.4941 9.66968 11.9941 9.66968Z" fill="#D3D3D3"/>
<path d="M5.59545 19.0096C5.42545 19.0096 5.24545 18.9496 5.10545 18.8296C4.03545 17.9196 3.07545 16.7996 2.25545 15.4996C1.19545 13.8496 1.19545 11.1596 2.25545 9.49961C4.69545 5.67961 8.24545 3.47961 11.9954 3.47961C14.1954 3.47961 16.3654 4.23961 18.2654 5.66961C18.5954 5.91961 18.6654 6.38961 18.4154 6.71961C18.1654 7.04961 17.6954 7.11961 17.3654 6.86961C15.7254 5.62961 13.8654 4.97961 11.9954 4.97961C8.76545 4.97961 5.67545 6.91961 3.51545 10.3096C2.76545 11.4796 2.76545 13.5196 3.51545 14.6896C4.26545 15.8596 5.12545 16.8696 6.07545 17.6896C6.38545 17.9596 6.42545 18.4296 6.15545 18.7496C6.01545 18.9196 5.80545 19.0096 5.59545 19.0096Z" fill="#D3D3D3"/>
<path d="M11.9947 21.5195C10.6647 21.5195 9.36469 21.2495 8.11469 20.7195C7.73469 20.5595 7.55469 20.1195 7.71469 19.7395C7.87469 19.3595 8.31469 19.1795 8.69469 19.3395C9.75469 19.7895 10.8647 20.0195 11.9847 20.0195C15.2147 20.0195 18.3047 18.0795 20.4647 14.6895C21.2147 13.5195 21.2147 11.4795 20.4647 10.3095C20.1547 9.81951 19.8147 9.34951 19.4547 8.90951C19.1947 8.58951 19.2447 8.11951 19.5647 7.84951C19.8847 7.58951 20.3547 7.62951 20.6247 7.95951C21.0147 8.43951 21.3947 8.95951 21.7347 9.49951C22.7947 11.1495 22.7947 13.8395 21.7347 15.4995C19.2947 19.3195 15.7447 21.5195 11.9947 21.5195Z" fill="#D3D3D3"/>
<path d="M12.6852 16.7696C12.3352 16.7696 12.0152 16.5196 11.9452 16.1596C11.8652 15.7496 12.1352 15.3596 12.5452 15.2896C13.6452 15.0896 14.5652 14.1696 14.7652 13.0696C14.8452 12.6596 15.2352 12.3996 15.6452 12.4696C16.0552 12.5496 16.3252 12.9396 16.2452 13.3496C15.9252 15.0796 14.5452 16.4496 12.8252 16.7696C12.7752 16.7596 12.7352 16.7696 12.6852 16.7696Z" fill="#D3D3D3"/>
<path d="M1.99457 23.2494C1.80457 23.2494 1.61457 23.1794 1.46457 23.0294C1.17457 22.7394 1.17457 22.2594 1.46457 21.9694L8.93457 14.4994C9.22457 14.2094 9.70457 14.2094 9.99457 14.4994C10.2846 14.7894 10.2846 15.2694 9.99457 15.5594L2.52457 23.0294C2.37457 23.1794 2.18457 23.2494 1.99457 23.2494Z" fill="#D3D3D3"/>
<path d="M14.5258 10.7197C14.3358 10.7197 14.1458 10.6497 13.9958 10.4997C13.7058 10.2097 13.7058 9.7297 13.9958 9.4397L21.4658 1.9697C21.7558 1.6797 22.2358 1.6797 22.5258 1.9697C22.8158 2.2597 22.8158 2.7397 22.5258 3.0297L15.0558 10.4997C14.9058 10.6497 14.7158 10.7197 14.5258 10.7197Z" fill="#D3D3D3"/>
</svg>
