<svg width="24" height="25" viewBox="0 0 24 25" fill="none" xmlns="http://www.w3.org/2000/svg">
<path d="M12.0024 16.8294C9.61236 16.8294 7.67236 14.8894 7.67236 12.4994C7.67236 10.1094 9.61236 8.16943 12.0024 8.16943C14.3924 8.16943 16.3324 10.1094 16.3324 12.4994C16.3324 14.8894 14.3924 16.8294 12.0024 16.8294ZM12.0024 9.66943C10.4424 9.66943 9.17236 10.9394 9.17236 12.4994C9.17236 14.0594 10.4424 15.3294 12.0024 15.3294C13.5624 15.3294 14.8324 14.0594 14.8324 12.4994C14.8324 10.9394 13.5624 9.66943 12.0024 9.66943Z" fill="#D3D3D3"/>
<path d="M12.003 21.5192C8.24301 21.5192 4.69301 19.3192 2.25301 15.4992C1.19301 13.8492 1.19301 11.1592 2.25301 9.49925C4.70301 5.67925 8.25301 3.47925 12.003 3.47925C15.753 3.47925 19.303 5.67925 21.743 9.49925C22.803 11.1492 22.803 13.8392 21.743 15.4992C19.303 19.3192 15.753 21.5192 12.003 21.5192ZM12.003 4.97925C8.77301 4.97925 5.68301 6.91925 3.52301 10.3092C2.77301 11.4792 2.77301 13.5192 3.52301 14.6892C5.68301 18.0792 8.77301 20.0192 12.003 20.0192C15.233 20.0192 18.323 18.0792 20.483 14.6892C21.233 13.5192 21.233 11.4792 20.483 10.3092C18.323 6.91925 15.233 4.97925 12.003 4.97925Z" fill="#D3D3D3"/>
</svg>
