<svg width="24" height="25" viewBox="0 0 24 25" fill="none" xmlns="http://www.w3.org/2000/svg">
<path d="M12.0029 13.2496C8.83293 13.2496 6.25293 10.6696 6.25293 7.49963C6.25293 4.32963 8.83293 1.74963 12.0029 1.74963C15.1729 1.74963 17.7529 4.32963 17.7529 7.49963C17.7529 10.6696 15.1729 13.2496 12.0029 13.2496ZM12.0029 3.24963C9.66293 3.24963 7.75293 5.15963 7.75293 7.49963C7.75293 9.83963 9.66293 11.7496 12.0029 11.7496C14.3429 11.7496 16.2529 9.83963 16.2529 7.49963C16.2529 5.15963 14.3429 3.24963 12.0029 3.24963Z" fill="#D3D3D3"/>
<path d="M20.5936 23.2495C20.1836 23.2495 19.8436 22.9095 19.8436 22.4995C19.8436 19.0495 16.3236 16.2495 12.0036 16.2495C7.68357 16.2495 4.16357 19.0495 4.16357 22.4995C4.16357 22.9095 3.82357 23.2495 3.41357 23.2495C3.00357 23.2495 2.66357 22.9095 2.66357 22.4995C2.66357 18.2295 6.85357 14.7495 12.0036 14.7495C17.1536 14.7495 21.3436 18.2295 21.3436 22.4995C21.3436 22.9095 21.0036 23.2495 20.5936 23.2495Z" fill="#D3D3D3"/>
</svg>
